<?xml version="1.0" encoding="UTF-8"?>
<svg id="_图层_1" data-name="图层 1" xmlns="http://www.w3.org/2000/svg" xmlns:xlink="http://www.w3.org/1999/xlink" viewBox="0 0 333.74 372.46">
  <defs>
    <style>
      .cls-1 {
        fill: url(#_未命名的渐变);
      }

      .cls-1, .cls-2, .cls-3 {
        stroke-width: 0px;
      }

      .cls-2 {
        fill: rgba(253, 146, 72, 0);
      }

      .cls-4 {
        fill: rgba(255, 255, 255, 0);
        stroke: #fd9248;
        stroke-miterlimit: 8;
        stroke-width: 6px;
      }

      .cls-3 {
        fill: url(#_未命名的渐变_2);
      }
    </style>
    <linearGradient id="_未命名的渐变" data-name="未命名的渐变" x1="-791" y1="724.26" x2="-791" y2="725.26" gradientTransform="translate(230140.98 106285.07) scale(290.74 -146.48)" gradientUnits="userSpaceOnUse">
      <stop offset="0" stop-color="#fd9248"/>
      <stop offset=".5" stop-color="#fa1768"/>
      <stop offset="1" stop-color="#f001ff"/>
    </linearGradient>
    <linearGradient id="_未命名的渐变_2" data-name="未命名的渐变 2" x1="-791" y1="723.85" x2="-791" y2="724.85" gradientTransform="translate(230139.91 88061.33) scale(290.74 -121.21)" gradientUnits="userSpaceOnUse">
      <stop offset="0" stop-color="#fd9248"/>
      <stop offset=".5" stop-color="#fa1768"/>
      <stop offset="1" stop-color="#f001ff"/>
    </linearGradient>
  </defs>
  <polyline class="cls-4" points="165.37 43.38 165.37 23.38 330.74 3.38 330.74 369.08 165.37 349.08 165.37 329.08"/>
  <g>
    <rect class="cls-2" y="43.38" width="330.74" height="285.69"/>
    <g>
      <path class="cls-1" d="m103.22,54.26l44.92,2.92-35.74,135.94-48.44,2.74L20,58.56l46.3-4.3,18.74,80.08,18.18-80.08Zm48.82,5.08l51.96-2.74-10.74,133-41.22,2.16V59.34Zm158.7,82.8h0c0,8.92-1.55,16.72-4.64,23.4-3.09,6.67-7.33,12.21-12.7,16.64-5.37,4.43-11.65,7.75-18.84,9.96-7.2,2.21-14.93,3.32-23.2,3.32h0c-3.19,0-6.69-.42-10.5-1.26-3.81-.85-7.67-1.91-11.58-3.18-3.91-1.27-7.67-2.63-11.28-4.1s-6.82-2.85-9.62-4.14h0l4.3-40.24c5.53,3.32,11.67,5.84,18.42,7.56,6.73,1.73,13.35,2.6,19.86,2.6h0c1.24,0,2.74-.05,4.5-.16,1.76-.09,3.43-.39,5.02-.88,1.6-.48,2.95-1.21,4.06-2.18,1.11-.99,1.66-2.39,1.66-4.2h0c0-1.24-.39-2.3-1.18-3.18-.77-.88-1.78-1.6-3.02-2.16-1.24-.55-2.64-.97-4.2-1.26-1.56-.29-3.09-.51-4.58-.64-1.51-.13-2.91-.2-4.2-.2h-3.14c-5.6,0-10.69-.97-15.28-2.92s-8.53-4.67-11.82-8.16c-3.28-3.48-5.83-7.61-7.66-12.4s-2.74-9.98-2.74-15.58h0c0-7.68,1.55-14.56,4.64-20.64,3.09-6.09,7.23-11.27,12.4-15.54,5.19-4.27,11.13-7.53,17.84-9.8,6.69-2.28,13.63-3.42,20.8-3.42h0c3.19,0,6.47.11,9.86.34,3.39.23,6.75.63,10.1,1.22,3.36.59,6.63,1.33,9.82,2.24,3.19.91,6.21,2.05,9.08,3.42h0l-3.72,39.64c-4.43-1.49-9.06-2.75-13.9-3.76-4.85-1-9.59-1.5-14.22-1.5h0c-.84,0-1.93.01-3.26.04-1.35.04-2.75.14-4.2.3-1.47.16-2.95.4-4.46.72-1.49.33-2.83.77-4,1.32-1.17.56-2.11,1.29-2.82,2.2-.72.92-1.05,1.99-.98,3.22h0c.07,1.44.6,2.6,1.6,3.48,1.01.88,2.32,1.56,3.92,2.04,1.59.49,3.34.84,5.26,1.04,1.92.19,3.83.3,5.72.34,1.89.03,3.65.03,5.28,0,1.63-.04,2.96,0,4,.14h0c5.21.32,9.9,1.43,14.06,3.32,4.17,1.89,7.71,4.4,10.6,7.52,2.89,3.12,5.11,6.85,6.64,11.18,1.53,4.33,2.3,9.1,2.3,14.3Z"/>
      <path class="cls-3" d="m88.85,205.89l37.16,2.42-29.57,112.5-40.08,2.26-36.36-113.62,38.3-3.57,15.5,66.26,15.04-66.26Zm133.57,37.82h0c0,4.21-.37,8.02-1.1,11.44-.72,3.42-1.86,6.56-3.43,9.41-1.56,2.86-3.59,5.5-6.07,7.91-2.47,2.43-5.46,4.75-8.97,6.95h0l19.25,34.27-36.38,7.11-12.44-34.43-10.02.32-1.46,33.61h-34.73c.27-12.27.52-24.5.76-36.68.24-12.18.52-24.41.84-36.68h0c.11-6.2.21-12.34.32-18.43.12-6.09.34-12.23.66-18.43h0c3.77-1.4,7.48-2.56,11.14-3.47,3.67-.92,7.35-1.64,11.04-2.14,3.69-.51,7.43-.86,11.24-1.06,3.79-.19,7.69-.28,11.68-.28h0c6.14,0,12.08.85,17.81,2.54,5.74,1.7,10.82,4.25,15.24,7.65,4.41,3.39,7.95,7.62,10.62,12.68,2.67,5.06,4.01,10.96,4.01,17.69Zm-36.22,2.58h0c0-2.26-.31-4.33-.92-6.21-.61-1.88-1.53-3.51-2.74-4.89s-2.72-2.46-4.53-3.25c-1.8-.77-3.92-1.16-6.35-1.16h0c-1.07,0-2.12.07-3.14.2-1.03.13-2.02.33-2.98.6h0l-1.3,30.07h1.94c2.32,0,4.68-.3,7.07-.9,2.4-.59,4.56-1.5,6.47-2.74,1.91-1.23,3.47-2.82,4.69-4.77,1.2-1.94,1.8-4.25,1.8-6.95Zm124.54,32.33h0c0,7.38-1.28,13.84-3.85,19.35-2.55,5.53-6.05,10.12-10.5,13.78-4.45,3.66-9.65,6.4-15.6,8.23-5.96,1.83-12.35,2.74-19.19,2.74h0c-2.64,0-5.54-.35-8.69-1.04-3.14-.69-6.33-1.57-9.58-2.62-3.23-1.05-6.34-2.18-9.31-3.39-2.99-1.22-5.65-2.36-7.97-3.45h0l3.57-33.29c4.58,2.75,9.66,4.84,15.22,6.27,5.58,1.43,11.06,2.14,16.45,2.14h0c1.03,0,2.27-.04,3.73-.12,1.44-.08,2.82-.33,4.15-.74,1.32-.4,2.44-1.01,3.37-1.82.91-.8,1.36-1.96,1.36-3.47h0c0-1.03-.32-1.9-.96-2.62-.65-.73-1.49-1.33-2.5-1.78-1.03-.45-2.19-.8-3.49-1.04-1.28-.24-2.54-.41-3.79-.52-1.24-.12-2.4-.18-3.49-.18h-2.58c-4.63,0-8.85-.81-12.64-2.42-3.79-1.62-7.05-3.86-9.78-6.73-2.72-2.88-4.84-6.31-6.35-10.28-1.51-3.95-2.26-8.25-2.26-12.88h0c0-6.36,1.28-12.05,3.85-17.09,2.55-5.03,5.97-9.32,10.26-12.86,4.29-3.53,9.2-6.23,14.74-8.11,5.56-1.88,11.3-2.82,17.23-2.82h0c2.63,0,5.35.09,8.15.28,2.8.19,5.59.52,8.35,1,2.78.49,5.49,1.12,8.13,1.86,2.64.76,5.15,1.7,7.51,2.82h0l-3.06,32.81c-3.67-1.24-7.51-2.28-11.52-3.1-4.02-.84-7.94-1.26-11.76-1.26h0c-.69,0-1.6.01-2.7.04s-2.27.11-3.49.24c-1.2.13-2.42.34-3.67.62-1.24.27-2.35.63-3.33,1.08-.96.45-1.74,1.06-2.34,1.82-.59.75-.85,1.64-.8,2.66h0c.05,1.19.5,2.14,1.34,2.86.83.73,1.9,1.3,3.23,1.7,1.32.4,2.78.68,4.37.84,1.59.16,3.16.25,4.73.28s3.02.03,4.37,0c1.35-.03,2.45.01,3.31.12h0c4.31.28,8.19,1.2,11.64,2.74,3.45,1.56,6.37,3.64,8.77,6.23,2.39,2.59,4.22,5.68,5.49,9.25s1.9,7.53,1.9,11.84Z"/>
    </g>
  </g>
</svg>
